<?xml version="1.0" standalone="no"?>
<!DOCTYPE svg PUBLIC "-//W3C//DTD SVG 20010904//EN"
 "http://www.w3.org/TR/2001/REC-SVG-20010904/DTD/svg10.dtd">
<svg version="1.0" xmlns="http://www.w3.org/2000/svg"
 width="588.000000pt" height="588.000000pt" viewBox="0 0 588.000000 588.000000"
 preserveAspectRatio="xMidYMid meet">
<metadata>
Created by potrace 1.14, written by Peter Selinger 2001-2017
</metadata>
<g transform="translate(0.000000,588.000000) scale(0.100000,-0.100000)"
fill="#000000" stroke="none">
<path d="M1615 3934 c-102 -18 -160 -37 -260 -85 -183 -86 -334 -237 -429
-425 -41 -83 -84 -223 -92 -303 -3 -31 -7 -68 -9 -83 l-4 -28 209 0 210 0 0
33 c0 48 36 170 72 240 45 90 148 189 240 231 95 44 177 60 285 54 127 -7 220
-43 340 -133 10 -7 47 24 148 125 74 74 135 138 135 142 0 5 -28 29 -62 54
-215 158 -514 226 -783 178z"/>
<path d="M3612 3558 l3 -363 197 -3 198 -2 2 177 3 178 473 3 472 2 0 185 0
185 -675 0 -675 0 2 -362z"/>
<path d="M2376 3511 l-139 -139 22 -30 c65 -92 111 -241 111 -364 0 -76 -21
-196 -45 -251 -8 -21 -12 -44 -8 -51 4 -8 60 -86 123 -175 l115 -161 27 33
c15 17 44 62 65 99 l38 68 428 0 427 0 0 175 0 175 -380 0 -380 0 0 83 c0 172
-52 368 -134 503 -49 82 -116 173 -126 174 -3 0 -68 -63 -144 -139z"/>
<path d="M3610 2575 l0 -545 200 0 200 0 0 365 0 365 440 0 440 0 0 180 0 180
-640 0 -640 0 0 -545z"/>
<path d="M828 2878 c10 -142 81 -345 162 -463 145 -211 353 -346 612 -396 173
-33 387 -17 538 40 30 12 58 21 61 21 4 0 19 -18 34 -40 l28 -40 224 0 c143 0
223 4 221 10 -1 5 -128 183 -281 395 l-278 385 -226 0 -225 0 18 -27 c10 -16
71 -102 137 -191 65 -90 116 -166 114 -169 -26 -25 -212 -30 -305 -8 -142 34
-280 138 -345 263 -39 73 -77 197 -77 249 l0 33 -208 0 -208 0 4 -62z"/>
<path d="M4384 2325 c-10 -24 6 -35 52 -35 l44 0 0 -130 0 -130 30 0 30 0 0
130 0 130 45 0 45 0 0 -130 0 -130 25 0 24 0 3 118 3 117 41 -115 c37 -101 45
-115 66 -118 23 -3 27 5 64 110 l39 113 3 -112 c3 -113 3 -113 27 -113 l25 0
0 156 0 155 -36 -3 c-40 -3 -35 6 -97 -171 l-24 -69 -42 121 -43 121 -159 0
c-130 0 -161 -3 -165 -15z"/>
</g>
</svg>
